<svg data-v-41fcfff3="" data-v-7493d19c="" xmlns="http://www.w3.org/2000/svg" viewBox="0 0 24 24" class="ico_language"><g data-v-41fcfff3="" fill="none" fill-rule="evenodd"><g data-v-41fcfff3="" stroke-width="1.35"><path data-v-41fcfff3="" d="M19.353 9.914c0 5.213-4.226 9.438-9.438 9.438-5.213 0-9.438-4.225-9.438-9.438C.477 4.702 4.702.477 9.915.477c5.212 0 9.438 4.225 9.438 9.437z" transform="translate(-1402 -23) translate(1358 23) translate(44) translate(2 2)"></path> <path data-v-41fcfff3="" stroke-linejoin="round" d="M13.662 9.914c0 5.213-3.748 9.438-3.748 9.438s-3.747-4.225-3.747-9.438c0-5.212 3.747-9.437 3.747-9.437s3.748 4.225 3.748 9.437z" transform="translate(-1402 -23) translate(1358 23) translate(44) translate(2 2)"></path> <path data-v-41fcfff3="" d="M.876 7.018L18.952 7.018M.876 12.811L18.952 12.811" transform="translate(-1402 -23) translate(1358 23) translate(44) translate(2 2)"></path></g></g></svg>